# xmcd
#
# Track frame offsets: 
#        183
#        39078
#        74098
#        89808
#
# Disc length: 2449 seconds
#
# Revision: 4
# Processed by: cddbd v1.5.2PL0 Copyright (c) Steve Scherf et al.
# Submitted via: ExactAudioCopy v0.90b4
#
DISCID=34098f04
DTITLE=SBB - Memento Z Banalnym Tryptykiem
DYEAR=1980
DGENRE=Progressive Rock
TTITLE0=Moja Ziemio Wysniona
TTITLE1=Trójkat Radosci
TTITLE2=Strategia Pulsu
TTITLE3=Memento Z Banalnym Tryptykiem
EXTD=YEAR: 1980
EXTT0=
EXTT1=
EXTT2=
EXTT3=
PLAYORDER=
